<?xml version="1.0" encoding="UTF-8"?>
<svg version="1.1" xmlns="http://www.w3.org/2000/svg" width="186" height="181">
<path d="M0 0 C61.38 0 122.76 0 186 0 C186 59.73 186 119.46 186 181 C124.62 181 63.24 181 0 181 C0 121.27 0 61.54 0 0 Z " fill="#000000" transform="translate(0,0)"/>
<path d="M0 0 C1.07765625 -0.020625 2.1553125 -0.04125 3.265625 -0.0625 C21.55607813 -0.15064676 39.47674627 7.85877526 52.90625 20.1875 C67.2647838 35.2297735 74.61360568 53.51685552 74.34326172 74.17529297 C73.53250973 95.09778813 64.19559751 113.5891356 49.125 127.9375 C41.46052024 134.61874665 31.45123442 141.97110689 20.875 141.25 C18.96469029 139.33969029 19.71490324 135.81962666 19.69921875 133.21484375 C19.6759948 131.75063707 19.65187646 130.28644436 19.62695312 128.82226562 C19.59202732 126.51398743 19.56260974 124.20621365 19.54907227 121.89770508 C19.56567122 110.00133077 19.56567122 110.00133077 14.875 99.25 C15.9371875 99.07984375 16.999375 98.9096875 18.09375 98.734375 C30.99365588 96.68489091 30.99365588 96.68489091 41.6875 89.5 C46.08401407 82.96803623 47.43482083 76.97508142 47.375 69.25 C47.37294556 68.06144409 47.37294556 68.06144409 47.37084961 66.84887695 C47.23343706 61.63851625 46.58260721 57.91262371 43.06640625 53.85546875 C40.23069594 50.03423289 40.79136929 45.17242007 40.875 40.625 C40.96675162 35.85126313 40.96675162 35.85126313 39.875 31.25 C34.42377609 31.45570656 31.21639989 32.48637248 26.5625 35.375 C21.58093131 38.2293777 18.74623173 38.58836881 13.1640625 37.6875 C8.8456586 37.11308048 4.60115504 37.11235129 0.25 37.125 C-0.93142578 37.11895752 -0.93142578 37.11895752 -2.13671875 37.11279297 C-6.1147435 37.12026422 -9.86248449 37.34262581 -13.79296875 37.96875 C-18.34310057 38.52361991 -20.89320504 37.31431519 -24.8125 34.875 C-29.01714333 32.29779493 -32.19236286 30.76766807 -37.125 30.25 C-38.24479824 36.12894075 -38.02180397 41.6833631 -37.671875 47.65234375 C-38.12535395 51.25281021 -38.62031955 52.26135055 -40.60546875 55.10546875 C-43.65417193 59.59735464 -43.86737793 63.29685451 -43.6875 68.625 C-43.66151733 69.8773645 -43.66151733 69.8773645 -43.63500977 71.1550293 C-43.32257759 79.31245047 -41.96796984 85.94794029 -35.8125 91.6875 C-28.47902781 97.16830553 -21.0486374 98.10938469 -12.125 99.25 C-12.42921875 99.83394531 -12.7334375 100.41789062 -13.046875 101.01953125 C-14.27485428 103.44322224 -14.27485428 103.44322224 -15.375 106.9375 C-15.9525 108.030625 -16.53 109.12375 -17.125 110.25 C-20.3125 111.1875 -20.3125 111.1875 -23.125 111.25 C-22.795 112.24 -22.465 113.23 -22.125 114.25 C-23.445 114.25 -24.765 114.25 -26.125 114.25 C-27.115 113.26 -27.115 113.26 -28.125 112.25 C-28.125 112.91 -28.125 113.57 -28.125 114.25 C-29.445 113.92 -30.765 113.59 -32.125 113.25 C-32.125 112.26 -32.125 111.27 -32.125 110.25 C-33.74474559 108.53769752 -35.4208946 106.87836738 -37.125 105.25 C-37.99109559 104.19720117 -38.84547299 103.13464619 -39.6875 102.0625 C-43.49040046 97.67453793 -46.45069951 97.02376825 -52.125 96.25 C-51.42375 96.889375 -50.7225 97.52875 -50 98.1875 C-45.53116441 102.643676 -42.31272495 108.18105976 -39.1875 113.625 C-36.55322919 116.97770831 -34.24054592 118.44880387 -30.125 119.25 C-25.44634279 119.48060194 -20.8047583 119.42524754 -16.125 119.25 C-16.06709647 122.54159316 -16.03143739 125.83305603 -16 129.125 C-15.98324219 130.06214844 -15.96648437 130.99929687 -15.94921875 131.96484375 C-15.93955078 133.30869141 -15.93955078 133.30869141 -15.9296875 134.6796875 C-15.91397705 135.92081299 -15.91397705 135.92081299 -15.89794922 137.18701172 C-16.125 139.25 -16.125 139.25 -18.125 141.25 C-30.35535289 141.48076138 -41.6635027 132.27227454 -50.125 124.25 C-65.45142292 108.5746829 -71.42375146 89.18998526 -71.43969727 67.73046875 C-71.17802381 49.0014623 -62.93842027 32.56637005 -50.109375 19.140625 C-36.20661169 5.85576228 -18.89992755 0.08852425 0 0 Z " fill="#FBFBFB" transform="translate(91.125,17.75)"/>
<path d="M0 0 C2.64 0 5.28 0 8 0 C8.33 0.99 8.66 1.98 9 3 C7.68 3 6.36 3 5 3 C4.34 2.34 3.68 1.68 3 1 C3 1.66 3 2.32 3 3 C1.68 2.67 0.36 2.34 -1 2 C-0.67 1.34 -0.34 0.68 0 0 Z " fill="#939393" transform="translate(60,129)"/>
</svg>
